<svg width="30" height="30" viewBox="0 0 30 30" fill="none" xmlns="http://www.w3.org/2000/svg">
<path d="M0 11.2C0 7.27963 0 5.31945 0.762954 3.82207C1.43407 2.50493 2.50493 1.43407 3.82207 0.762954C5.31945 0 7.27963 0 11.2 0L18.8 0C22.7204 0 24.6806 0 26.1779 0.762954C27.4951 1.43407 28.5659 2.50493 29.237 3.82207C30 5.31945 30 7.27963 30 11.2L30 18.8C30 22.7204 30 24.6806 29.237 26.1779C28.5659 27.4951 27.4951 28.5659 26.1779 29.237C24.6806 30 22.7204 30 18.8 30L11.2 30C7.27963 30 5.31945 30 3.82207 29.237C2.50493 28.5659 1.43407 27.4951 0.762954 26.1779C0 24.6806 0 22.7204 0 18.8L0 11.2Z" fill="#007AFF"/>
<path d="M15 23.9375C19.936 23.9375 23.9375 19.936 23.9375 15C23.9375 10.064 19.936 6.0625 15 6.0625C10.064 6.0625 6.0625 10.064 6.0625 15C6.0625 19.936 10.064 23.9375 15 23.9375Z" stroke="white" stroke-width="0.75" stroke-miterlimit="10"/>
<path d="M15 11.5625L15 18.4375C15.9117 18.4375 10.3553 19.0822 11 18.4375C11.6447 17.7928 11.5625 15.9117 11.5625 15C11.5625 14.0883 11.9932 12.0068 13 11C12.3553 10.3553 14.5 11 15 11.5625ZM15 6.0625V11.5625C14.0883 11.5625 13.6447 10.3553 13 11C12.3553 11.6447 11.5625 14.0883 11.5625 15C11.5625 15.9117 11.9247 16.786 12.5693 17.4307C13.214 18.0753 14.0883 18.4375 15 18.4375V23.9375C10.0638 23.9375 6.0625 19.9362 6.0625 15C6.0625 10.0638 10.0638 6.0625 15 6.0625Z" fill="white"/>
</svg>
