<svg width="172" height="172" viewBox="0 0 172 172" fill="none" xmlns="http://www.w3.org/2000/svg">
<rect width="172" height="172" rx="20.3604" fill="url(#paint0_linear_247_1606)"/>
<path fill-rule="evenodd" clip-rule="evenodd" d="M122.569 54.1835C125.574 59.975 125.706 66.0268 122.974 72.8577C122.652 73.6629 117.133 80.0856 110.12 88.0061C108.725 87.7208 107.28 87.571 105.8 87.571C101.741 87.571 97.9442 88.6981 94.707 90.6564L71.1302 69.1805C86.441 52.3877 91.182 47.4007 92.8006 46.3594C103.179 39.6846 116.919 43.2961 122.569 54.1835ZM92.4615 92.2181L69.3339 71.1514C50.3204 92.0192 49.2604 93.2653 47.9575 96.0337C44.0889 104.254 46.0686 113.927 52.8863 120.116C60.2701 126.82 71.5278 127.272 79.5396 121.186C80.2262 120.665 82.3396 118.507 85.2887 115.371C84.6705 113.368 84.3377 111.24 84.3377 109.033C84.3377 102.221 87.5117 96.1498 92.4615 92.2181Z" fill="white"/>
<ellipse cx="105.801" cy="109.033" rx="20.1999" ry="20.1999" fill="white"/>
<path fill-rule="evenodd" clip-rule="evenodd" d="M92.9664 99.3796C92.5253 99.9655 92.6425 100.798 93.2282 101.239L105.198 110.261C105.411 110.421 105.656 110.508 105.903 110.526C105.975 110.538 106.049 110.545 106.125 110.545H121.133C121.869 110.545 122.466 109.948 122.466 109.211C122.466 108.475 121.869 107.878 121.133 107.878H106.465L94.8268 99.1172C94.2406 98.6759 93.4077 98.7934 92.9664 99.3796Z" fill="#0167CD"/>
<defs>
<linearGradient id="paint0_linear_247_1606" x1="86" y1="11.3379" x2="86" y2="329.723" gradientUnits="userSpaceOnUse">
<stop stop-color="#007BF3"/>
<stop offset="1" stop-color="#00336A"/>
</linearGradient>
</defs>
</svg>
