<svg width="30" height="30" viewBox="0 0 30 30" fill="none" xmlns="http://www.w3.org/2000/svg">
<path d="M0 11.2C0 7.27963 0 5.31945 0.762954 3.82207C1.43407 2.50493 2.50493 1.43407 3.82207 0.762954C5.31945 0 7.27963 0 11.2 0L18.8 0C22.7204 0 24.6806 0 26.1779 0.762954C27.4951 1.43407 28.5659 2.50493 29.237 3.82207C30 5.31945 30 7.27963 30 11.2L30 18.8C30 22.7204 30 24.6806 29.237 26.1779C28.5659 27.4951 27.4951 28.5659 26.1779 29.237C24.6806 30 22.7204 30 18.8 30L11.2 30C7.27963 30 5.31945 30 3.82207 29.237C2.50493 28.5659 1.43407 27.4951 0.762954 26.1779C0 24.6806 0 22.7204 0 18.8L0 11.2Z" fill="#5AC8FA"/>
<path d="M5 15C5 20.523 9.477 25 15 25C20.523 25 25 20.523 25 15C25 9.477 20.523 5 15 5C9.477 5 5 9.477 5 15Z" stroke="white" stroke-width="1.5" stroke-linecap="round" stroke-linejoin="round"/>
<path d="M15.9999 5.04999C15.9999 5.04999 18.9999 8.99999 18.9999 15C18.9999 21 15.9999 24.95 15.9999 24.95M13.9999 24.95C13.9999 24.95 10.9999 21 10.9999 15C10.9999 8.99999 13.9999 5.04999 13.9999 5.04999M5.62988 18.5H24.3699M5.62988 11.5L24.3699 11.5" stroke="white" stroke-width="1.5" stroke-linecap="round" stroke-linejoin="round"/>
</svg>
