<svg width="24" height="24" viewBox="0 0 24 24" fill="none" xmlns="http://www.w3.org/2000/svg">
<path fill-rule="evenodd" clip-rule="evenodd" d="M8.56971 7.67214e-05C7.75714 7.67214e-05 6.924 0.262362 6.26743 0.804077C5.60057 1.35265 5.13943 2.17551 5.13943 3.12522V5.77036H2.57143C1.18286 5.77036 0 6.85722 0 8.27322V21.4458C0 22.8601 1.18286 23.9486 2.57143 23.9486H21.4286C22.8171 23.9486 24 22.8601 24 21.4458V8.27322C24 6.85893 22.8171 5.77036 21.4286 5.77036H18.8606V3.12522C18.8606 2.17722 18.3994 1.35265 17.7326 0.804077C17.0808 0.278666 16.2675 -0.00536349 15.4303 7.67214e-05H8.56971ZM15.432 5.77036V3.42865H8.568V5.77036H15.432ZM7.5 14.8595C7.5 14.2681 7.98 13.7881 8.57143 13.7881H10.9286V11.4309C10.9286 11.1468 11.0415 10.8743 11.2424 10.6733C11.4433 10.4724 11.7158 10.3595 12 10.3595C12.2842 10.3595 12.5567 10.4724 12.7576 10.6733C12.9585 10.8743 13.0714 11.1468 13.0714 11.4309V13.7881H15.4286C15.7127 13.7881 15.9853 13.901 16.1862 14.1019C16.3871 14.3028 16.5 14.5753 16.5 14.8595C16.5 15.1437 16.3871 15.4162 16.1862 15.6171C15.9853 15.8181 15.7127 15.9309 15.4286 15.9309H13.0714V18.2881C13.0714 18.5722 12.9585 18.8448 12.7576 19.0457C12.5567 19.2466 12.2842 19.3595 12 19.3595C11.7158 19.3595 11.4433 19.2466 11.2424 19.0457C11.0415 18.8448 10.9286 18.5722 10.9286 18.2881V15.9309H8.57143C8.28727 15.9309 8.01475 15.8181 7.81381 15.6171C7.61288 15.4162 7.5 15.1437 7.5 14.8595Z" fill="#8E8E93"/>
</svg>
