<svg width="30" height="30" viewBox="0 0 30 30" fill="none" xmlns="http://www.w3.org/2000/svg">
<path d="M0 11.2C0 7.27963 0 5.31945 0.762954 3.82207C1.43407 2.50493 2.50493 1.43407 3.82207 0.762954C5.31945 0 7.27963 0 11.2 0L18.8 0C22.7204 0 24.6806 0 26.1779 0.762954C27.4951 1.43407 28.5659 2.50493 29.237 3.82207C30 5.31945 30 7.27963 30 11.2L30 18.8C30 22.7204 30 24.6806 29.237 26.1779C28.5659 27.4951 27.4951 28.5659 26.1779 29.237C24.6806 30 22.7204 30 18.8 30L11.2 30C7.27963 30 5.31945 30 3.82207 29.237C2.50493 28.5659 1.43407 27.4951 0.762954 26.1779C0 24.6806 0 22.7204 0 18.8L0 11.2Z" fill="#8E8E93"/>
<path d="M11.0967 22.8677C10.0259 22.8677 9.50293 22.3364 9.50293 21.1743L9.50293 15.0815C9.50293 14.1021 10.0093 13.5708 10.8228 13.4463L10.8228 11.313C10.8228 8.18359 12.873 6.67285 15.0479 6.67285C17.2227 6.67285 19.2729 8.18359 19.2729 11.313L19.2729 13.4048C20.1611 13.4961 20.5928 14.0356 20.5928 15.0815L20.5928 21.1743C20.5928 22.3364 20.0698 22.8677 18.999 22.8677L11.0967 22.8677ZM12.1592 11.1387L12.1592 13.4048L17.9365 13.3965L17.9365 11.1387C17.9365 9.05518 16.6001 7.95117 15.0479 7.95117C13.4956 7.95117 12.1592 9.05518 12.1592 11.1387Z" fill="white"/>
</svg>
