<svg width="30" height="30" viewBox="0 0 30 30" fill="none" xmlns="http://www.w3.org/2000/svg">
<path d="M0 11.2C0 7.27963 0 5.31945 0.762954 3.82207C1.43407 2.50493 2.50493 1.43407 3.82207 0.762954C5.31945 0 7.27963 0 11.2 0L18.8 0C22.7204 0 24.6806 0 26.1779 0.762954C27.4951 1.43407 28.5659 2.50493 29.237 3.82207C30 5.31945 30 7.27963 30 11.2L30 18.8C30 22.7204 30 24.6806 29.237 26.1779C28.5659 27.4951 27.4951 28.5659 26.1779 29.237C24.6806 30 22.7204 30 18.8 30L11.2 30C7.27963 30 5.31945 30 3.82207 29.237C2.50493 28.5659 1.43407 27.4951 0.762954 26.1779C0 24.6806 0 22.7204 0 18.8L0 11.2Z" fill="#5AC8FA"/>
<path d="M8.77295 23.6978C8.13379 23.6978 7.95117 23.1831 8.2749 22.7681C8.59033 22.353 9.42041 21.4399 9.88525 20.6763C9.95166 20.5435 9.91016 20.4189 9.78564 20.3525C7.12109 18.9331 5.48584 16.6006 5.48584 13.936C5.48584 9.76074 9.66943 6.39062 14.8989 6.39063C20.1284 6.39063 24.312 9.76074 24.312 13.936C24.312 18.0698 20.3442 21.4731 14.3594 21.4731C14.2515 21.4731 14.1436 21.4731 14.0356 21.4565C13.9194 21.4565 13.8032 21.498 13.6621 21.606C12.251 22.6104 9.76904 23.6978 8.77295 23.6978Z" fill="white"/>
<circle cx="11" cy="14" r="1" fill="#5AC8F5"/>
<circle cx="15" cy="14" r="1" fill="#5AC8F5"/>
<circle cx="19" cy="14" r="1" fill="#5AC8F5"/>
</svg>
