<svg width="30" height="30" viewBox="0 0 30 30" fill="none" xmlns="http://www.w3.org/2000/svg">
<path d="M0 11.2C0 7.27963 0 5.31945 0.762954 3.82207C1.43407 2.50493 2.50493 1.43407 3.82207 0.762954C5.31945 0 7.27963 0 11.2 0L18.8 0C22.7204 0 24.6806 0 26.1779 0.762954C27.4951 1.43407 28.5659 2.50493 29.237 3.82207C30 5.31945 30 7.27963 30 11.2L30 18.8C30 22.7204 30 24.6806 29.237 26.1779C28.5659 27.4951 27.4951 28.5659 26.1779 29.237C24.6806 30 22.7204 30 18.8 30L11.2 30C7.27963 30 5.31945 30 3.82207 29.237C2.50493 28.5659 1.43407 27.4951 0.762954 26.1779C0 24.6806 0 22.7204 0 18.8L0 11.2Z" fill="#FFCC00"/>
<path d="M13.8887 6.84349C14.3425 5.92408 15.6542 5.92408 16.108 6.84349L18.2695 11.2233L23.103 11.9255C24.1178 12.0722 24.523 13.3207 23.7887 14.0366L22.9582 14.846C21.9302 14.2679 20.7539 14.0079 19.578 14.0989C18.4022 14.1899 17.2798 14.6277 16.353 15.357C15.4262 16.0863 14.7367 17.0743 14.3718 18.1958C14.0068 19.3172 13.9829 20.5218 14.303 21.6568L10.6758 23.5635C9.76829 24.0402 8.70679 23.2702 8.87912 22.2591L9.70504 17.4457L6.20795 14.0357C5.4737 13.3207 5.87887 12.0731 6.89362 11.9255L11.7272 11.2233L13.8887 6.84349ZM25.0812 20.0417C25.0812 18.7045 24.55 17.4222 23.6045 16.4767C22.659 15.5312 21.3767 15 20.0395 15C18.7024 15 17.42 15.5312 16.4745 16.4767C15.529 17.4222 14.9979 18.7045 14.9979 20.0417C14.9979 21.3788 15.529 22.6612 16.4745 23.6067C17.42 24.5522 18.7024 25.0833 20.0395 25.0833C21.3767 25.0833 22.659 24.5522 23.6045 23.6067C24.55 22.6612 25.0812 21.3788 25.0812 20.0417ZM20.4979 20.5L20.4997 22.7944C20.4997 22.916 20.4514 23.0325 20.3655 23.1185C20.2795 23.2045 20.1629 23.2527 20.0414 23.2527C19.9198 23.2527 19.8032 23.2045 19.7173 23.1185C19.6313 23.0325 19.583 22.916 19.583 22.7944V20.5H17.2868C17.1652 20.5 17.0487 20.4517 16.9627 20.3658C16.8767 20.2798 16.8285 20.1632 16.8285 20.0417C16.8285 19.9201 16.8767 19.8035 16.9627 19.7176C17.0487 19.6316 17.1652 19.5833 17.2868 19.5833H19.583L19.5821 17.2907C19.5821 17.1692 19.6304 17.0526 19.7164 16.9667C19.8023 16.8807 19.9189 16.8324 20.0405 16.8324C20.162 16.8324 20.2786 16.8807 20.3645 16.9667C20.4505 17.0526 20.4988 17.1692 20.4988 17.2907V19.5824H22.7877C22.9093 19.5824 23.0258 19.6307 23.1118 19.7167C23.1977 19.8026 23.246 19.9192 23.246 20.0407C23.246 20.1623 23.1977 20.2789 23.1118 20.3648C23.0258 20.4508 22.9093 20.4991 22.7877 20.4991L20.4979 20.5Z" fill="white"/>
</svg>
