<svg width="30" height="30" viewBox="0 0 30 30" fill="none" xmlns="http://www.w3.org/2000/svg">
<path d="M0 11.2C0 7.27963 0 5.31945 0.762954 3.82207C1.43407 2.50493 2.50493 1.43407 3.82207 0.762954C5.31945 0 7.27963 0 11.2 0L18.8 0C22.7204 0 24.6806 0 26.1779 0.762954C27.4951 1.43407 28.5659 2.50493 29.237 3.82207C30 5.31945 30 7.27963 30 11.2L30 18.8C30 22.7204 30 24.6806 29.237 26.1779C28.5659 27.4951 27.4951 28.5659 26.1779 29.237C24.6806 30 22.7204 30 18.8 30L11.2 30C7.27963 30 5.31945 30 3.82207 29.237C2.50493 28.5659 1.43407 27.4951 0.762954 26.1779C0 24.6806 0 22.7204 0 18.8L0 11.2Z" fill="#34C759"/>
<path d="M10.7231 23.7642C9.85433 23.7642 9.20133 23.5483 8.76416 23.1167C8.33252 22.6906 8.1167 22.0487 8.1167 21.1909L8.1167 13.0728C8.1167 12.215 8.33252 11.5731 8.76416 11.147C9.20133 10.7153 9.85433 10.4995 10.7231 10.4995H14.6328L14.6328 16.6172C14.6328 16.8441 14.7158 17.0405 14.8818 17.2065C15.0534 17.367 15.2554 17.4473 15.4878 17.4473C15.7147 17.4473 15.9111 17.367 16.0771 17.2065C16.2487 17.0405 16.3345 16.8441 16.3345 16.6172V10.4995H20.2441C21.113 10.4995 21.7632 10.7153 22.1948 11.147C22.632 11.5786 22.8506 12.2205 22.8506 13.0728V21.1909C22.8506 22.0431 22.632 22.6851 22.1948 23.1167C21.7632 23.5483 21.113 23.7642 20.2441 23.7642H10.7231ZM15.4878 11.1553C15.3052 11.1553 15.1475 11.0916 15.0146 10.9644C14.8874 10.8371 14.8237 10.6849 14.8237 10.5078V8.09229L14.8735 6.84717L14.3174 7.43652L13.0557 8.78125C12.9395 8.91406 12.7873 8.98047 12.5991 8.98047C12.4276 8.98047 12.2837 8.92513 12.1675 8.81445C12.0568 8.70378 12.0015 8.56266 12.0015 8.39111C12.0015 8.30257 12.0181 8.2251 12.0513 8.15869C12.0845 8.08675 12.1343 8.02035 12.2007 7.95947L15.0063 5.25342C15.0894 5.17041 15.1668 5.1123 15.2388 5.0791C15.3162 5.0459 15.3993 5.0293 15.4878 5.0293C15.5708 5.0293 15.6483 5.0459 15.7202 5.0791C15.7977 5.1123 15.8779 5.17041 15.9609 5.25342L18.7666 7.95947C18.833 8.02035 18.8828 8.08675 18.916 8.15869C18.9492 8.2251 18.9658 8.30257 18.9658 8.39111C18.9658 8.56266 18.9077 8.70378 18.7915 8.81445C18.6753 8.92513 18.5314 8.98047 18.3599 8.98047C18.1772 8.98047 18.0278 8.91406 17.9116 8.78125L16.6499 7.43652L16.0938 6.84717L16.1436 8.09229V10.5078C16.1436 10.6849 16.0771 10.8371 15.9443 10.9644C15.8171 11.0916 15.6649 11.1553 15.4878 11.1553Z" fill="white"/>
</svg>
