<svg width="30" height="30" viewBox="0 0 30 30" fill="none" xmlns="http://www.w3.org/2000/svg">
<path d="M0 11.2C0 7.27963 0 5.31945 0.762954 3.82207C1.43407 2.50493 2.50493 1.43407 3.82207 0.762954C5.31945 0 7.27963 0 11.2 0L18.8 0C22.7204 0 24.6806 0 26.1779 0.762954C27.4951 1.43407 28.5659 2.50493 29.237 3.82207C30 5.31945 30 7.27963 30 11.2L30 18.8C30 22.7204 30 24.6806 29.237 26.1779C28.5659 27.4951 27.4951 28.5659 26.1779 29.237C24.6806 30 22.7204 30 18.8 30L11.2 30C7.27963 30 5.31945 30 3.82207 29.237C2.50493 28.5659 1.43407 27.4951 0.762954 26.1779C0 24.6806 0 22.7204 0 18.8L0 11.2Z" fill="#8E8E93"/>
<g clip-path="url(#clip0_247_1273)">
<path d="M15.5 6V10.375C15.5 10.8723 15.6975 11.3492 16.0492 11.7008C16.4008 12.0525 16.8777 12.25 17.375 12.25H21.75V21.625C21.75 22.1223 21.5525 22.5992 21.2008 22.9508C20.8492 23.3025 20.3723 23.5 19.875 23.5H9.875C9.37772 23.5 8.90081 23.3025 8.54917 22.9508C8.19754 22.5992 8 22.1223 8 21.625V7.875C8 7.37772 8.19754 6.90081 8.54917 6.54917C8.90081 6.19754 9.37772 6 9.875 6H15.5ZM16.75 6.07313V10.375C16.75 10.5408 16.8158 10.6997 16.9331 10.8169C17.0503 10.9342 17.2092 11 17.375 11H21.6769C21.5892 10.6946 21.4253 10.4165 21.2006 10.1919L17.5581 6.55C17.3335 6.32512 17.0554 6.16102 16.75 6.07313Z" fill="white"/>
</g>
<defs>
<clipPath id="clip0_247_1273">
<rect width="20" height="20" fill="white" transform="translate(5 5)"/>
</clipPath>
</defs>
</svg>
